<svg xmlns="http://www.w3.org/2000/svg" xmlns:xlink="http://www.w3.org/1999/xlink" width="230" height="47" viewBox="0 0 230 47"><defs><style>.cls-1{fill:#79c0d7;}.cls-2{fill:#fff;}.cls-3{fill:none;stroke:#000;stroke-miterlimit:10;}</style></defs><title>Untitled-3</title><g id="Layer_1" data-name="Layer 1"><image width="230" height="47" xlink:href="C:%5CUsers%5Cfilip%5CDesktop%5CLogo-HueTower_v2.png"/></g><g id="Layer_2" data-name="Layer 2"><polygon class="cls-1" points="0.5 0.5 0.5 46.5 11.5 46.5 11.5 33.5 11.5 27.53 11.5 26.5 13.5 26.5 13.5 46.5 24.5 46.5 24.5 0.5 13.5 0.5 13.5 16.5 11.5 16.5 11.5 0.5 0.5 0.5"/><polygon class="cls-1" points="27.5 46.5 27.5 0.5 38.5 0.5 38.5 35.5 40.5 35.5 40.5 0.5 51.5 0.5 51.5 46.5 27.5 46.5"/><polygon class="cls-1" points="54.5 46.5 71.5 46.5 71.5 35.5 65.5 35.5 65.5 27.5 71.5 27.5 71.5 16.5 65.5 16.5 65.5 11.5 71.5 11.5 71.5 0.5 54.5 0.5 54.5 46.5"/><polygon class="cls-1" points="94.5 0.5 100.5 0.5 100.5 3.5 102.5 3.5 102.5 0.5 109.5 0.5 109.5 3.5 111.5 3.5 111.5 0.5 117.5 0.5 117.5 14.5 111.5 14.5 111.5 46.5 100.5 46.5 100.5 14.5 94.5 14.5 94.5 0.5"/><polygon class="cls-1" points="146.5 0.5 157.5 0.5 157.5 23.5 159.5 23.5 159.5 0.5 170.5 0.5 170.5 23.5 172.5 23.5 172.5 0.5 183.5 0.5 183.5 46.5 166.5 46.5 166.5 35.5 163.5 35.5 163.5 46.5 146.5 46.5 146.5 0.5"/><polygon class="cls-1" points="203.5 0.5 186.5 0.5 186.5 46.5 203.5 46.5 203.5 35.5 197.5 35.5 197.5 27.5 203.5 27.5 203.5 16.5 197.5 16.5 197.5 11.5 203.5 11.5 203.5 0.5"/><path class="cls-1" d="M120.5.5v46h24V.5Zm13,35h-2v-24h2Z" transform="translate(0 0)"/><path class="cls-1" d="M205.5.5v46h11v-20h2v20h11V.5Zm13,16h-2v-6h2Z" transform="translate(0 0)"/><polygon class="cls-2" points="1 1 1 43 11 43 11 30 11 24.03 11 23 14 23 14 43 24 43 24 1 14 1 14 13 12 13 12 1 1 1"/><polygon class="cls-2" points="28 43 28 1 38 1 38 32 41 32 41 1 52 1 52 43 28 43"/><polygon class="cls-2" points="55 43 71 43 71 32 65 32 65 24 71 24 71 13 65 13 65 8 71 8 71 1 55 1 55 43"/><polygon class="cls-2" points="95 1 100 1 100 0 103 0 103 1 109 1 109 0 112 0 112 1 117 1 117 11 111 11 111 43 101 43 101 11 95 11 95 1"/><polygon class="cls-2" points="147 1 157 1 157 20 160 20 160 1 170 1 170 20 173 20 173 1 183 1 183 43 167 43 167 32 163 32 163 43 147 43 147 1"/><polygon class="cls-2" points="203 1 187 1 187 43 203 43 203 32 197 32 197 24 203 24 203 13 197 13 197 8 203 8 203 1"/><path class="cls-2" d="M121,1V43h23V1Zm13,31h-3V8h3Z" transform="translate(0 0)"/><path class="cls-2" d="M206,1V43h10V23h3V43h10V1Zm13,12h-3V7h3Z" transform="translate(0 0)"/><polygon class="cls-3" points="0.5 0.5 0.5 46.5 11.5 46.5 11.5 33.5 11.5 27.53 11.5 26.5 13.5 26.5 13.5 46.5 24.5 46.5 24.5 0.5 13.5 0.5 13.5 16.5 11.5 16.5 11.5 0.5 0.5 0.5"/><line class="cls-3" x1="13.5" y1="27.5" x2="11.5" y2="27.5"/><line class="cls-3" x1="13.5" y1="45.5" x2="24.5" y2="45.5"/><line class="cls-3" x1="11.5" y1="45.5" x2="0.5" y2="45.5"/><polygon class="cls-3" points="27.5 46.5 27.5 0.5 38.5 0.5 38.5 35.5 40.5 35.5 40.5 0.5 51.5 0.5 51.5 46.5 27.5 46.5"/><line class="cls-3" x1="27.5" y1="45.5" x2="51.5" y2="45.5"/><polygon class="cls-3" points="54.5 46.5 71.5 46.5 71.5 35.5 65.5 35.5 65.5 27.5 71.5 27.5 71.5 16.5 65.5 16.5 65.5 11.5 71.5 11.5 71.5 0.5 54.5 0.5 54.5 46.5"/><line class="cls-3" x1="54.5" y1="45.5" x2="71.5" y2="45.5"/><polyline class="cls-3" points="71.5 26.5 65.5 26.5 65.5 27.5"/><polyline class="cls-3" points="71.5 10.51 65.5 10.5 65.5 11.5"/><polygon class="cls-3" points="94.5 0.5 100.5 0.5 100.5 3.5 102.5 3.5 102.5 0.5 109.5 0.5 109.5 3.5 111.5 3.5 111.5 0.5 117.5 0.5 117.5 14.5 111.5 14.5 111.5 46.5 100.5 46.5 100.5 14.5 94.5 14.5 94.5 0.5"/><polyline class="cls-3" points="94.5 13.5 100.5 13.5 100.5 14.7"/><polyline class="cls-3" points="117.5 13.5 111.5 13.5 111.5 14.5"/><line class="cls-3" x1="101" y1="45.5" x2="111.5" y2="45.5"/><rect class="cls-3" x="120.5" y="0.5" width="24" height="46"/><line class="cls-3" x1="120.5" y1="45.5" x2="144.5" y2="45.51"/><rect class="cls-3" x="131.5" y="11.5" width="2" height="24"/><polyline class="cls-3" points="131.5 11.5 131.5 10.5 133.5 10.5 133.5 11.5"/><polygon class="cls-3" points="146.5 0.5 157.5 0.5 157.5 23.5 159.5 23.5 159.5 0.5 170.5 0.5 170.5 23.5 172.5 23.5 172.5 0.5 183.5 0.5 183.5 46.5 166.5 46.5 166.5 35.5 163.5 35.5 163.5 46.5 146.5 46.5 146.5 0.5"/><line class="cls-3" x1="146.5" y1="45.5" x2="163.5" y2="45.5"/><polyline class="cls-3" points="163.5 35.5 163.5 34.5 166.5 34.5 166.5 35.5"/><line class="cls-3" x1="166.5" y1="45.5" x2="183.5" y2="45.5"/><polygon class="cls-3" points="203.5 0.5 186.5 0.5 186.5 46.5 203.5 46.5 203.5 35.5 197.5 35.5 197.5 27.5 203.5 27.5 203.5 16.5 197.5 16.5 197.5 11.5 203.5 11.5 203.5 0.5"/><polyline class="cls-3" points="203.5 10.5 197.5 10.5 197.5 11.5"/><polyline class="cls-3" points="203.5 26.53 197.5 26.5 197.5 27.5"/><line class="cls-3" x1="203.5" y1="45.5" x2="186.5" y2="45.5"/><polygon class="cls-3" points="205.5 0.5 205.5 46.5 216.5 46.5 216.5 26.5 218.5 26.5 218.5 46.5 229.5 46.5 229.5 0.5 205.5 0.5"/><rect class="cls-3" x="216.5" y="10.5" width="2" height="6"/><line class="cls-3" x1="216.5" y1="11.5" x2="218.5" y2="11.5"/><line class="cls-3" x1="216.5" y1="27.5" x2="218.5" y2="27.5"/><polyline class="cls-3" points="230 22.5 226.5 22.5 226.5 21.5 229.5 21.5"/><line class="cls-3" x1="205.5" y1="45.5" x2="216.5" y2="45.5"/><line class="cls-3" x1="218.5" y1="45.5" x2="229.5" y2="45.5"/></g></svg>